<svg width="21" height="22" viewBox="0 0 21 22" fill="none" xmlns="http://www.w3.org/2000/svg">
<g filter="url(#filter0_d_324_1152)">
<path d="M20.2027 6.23514V19.3828C20.2027 19.5952 20.1609 19.8055 20.0795 20.0017C19.9982 20.1979 19.879 20.3762 19.7287 20.5264C19.5785 20.6765 19.4001 20.7956 19.2037 20.8769C19.0073 20.9582 18.7969 21 18.5843 21H2.61833C2.18912 21 1.77749 20.8297 1.474 20.5264C1.1705 20.2232 1 19.8119 1 19.3831V6.23538L1.51581 5.70947H19.6161L20.2027 6.23514Z" fill="#E6E6E6"/>
<path d="M20.2027 3.41765V6.23509H1V3.41765C1 2.99227 1.16912 2.58431 1.47016 2.2835C1.77119 1.9827 2.17949 1.81369 2.60524 1.81366H18.5973C19.0231 1.81366 19.4314 1.98265 19.7325 2.28346C20.0335 2.58427 20.2027 2.99225 20.2027 3.41765Z" fill="url(#paint0_linear_324_1152)"/>
<path d="M4.21568 4.1449C4.54279 4.1449 4.80796 3.87996 4.80796 3.55313C4.80796 3.22631 4.54279 2.96136 4.21568 2.96136C3.88858 2.96136 3.62341 3.22631 3.62341 3.55313C3.62341 3.87996 3.88858 4.1449 4.21568 4.1449Z" fill="url(#paint1_radial_324_1152)"/>
<path d="M4.21581 1H4.21569C4.01814 1 3.858 1.16001 3.858 1.35738V3.34818C3.858 3.54556 4.01814 3.70557 4.21569 3.70557H4.21581C4.41336 3.70557 4.5735 3.54556 4.5735 3.34818V1.35738C4.5735 1.16001 4.41336 1 4.21581 1Z" fill="url(#paint2_linear_324_1152)"/>
<path d="M8.47283 4.1449C8.79993 4.1449 9.0651 3.87996 9.0651 3.55313C9.0651 3.22631 8.79993 2.96136 8.47283 2.96136C8.14572 2.96136 7.88055 3.22631 7.88055 3.55313C7.88055 3.87996 8.14572 4.1449 8.47283 4.1449Z" fill="url(#paint3_radial_324_1152)"/>
<path d="M8.47282 1H8.47269C8.27515 1 8.11501 1.16001 8.11501 1.35738V3.34818C8.11501 3.54556 8.27515 3.70557 8.47269 3.70557H8.47282C8.67036 3.70557 8.83051 3.54556 8.83051 3.34818V1.35738C8.83051 1.16001 8.67036 1 8.47282 1Z" fill="url(#paint4_linear_324_1152)"/>
<path d="M12.7298 4.1449C13.0569 4.1449 13.3221 3.87996 13.3221 3.55313C13.3221 3.22631 13.0569 2.96136 12.7298 2.96136C12.4027 2.96136 12.1376 3.22631 12.1376 3.55313C12.1376 3.87996 12.4027 4.1449 12.7298 4.1449Z" fill="url(#paint5_radial_324_1152)"/>
<path d="M12.73 1H12.7298C12.5323 1 12.3721 1.16001 12.3721 1.35738V3.34818C12.3721 3.54556 12.5323 3.70557 12.7298 3.70557H12.73C12.9275 3.70557 13.0876 3.54556 13.0876 3.34818V1.35738C13.0876 1.16001 12.9275 1 12.73 1Z" fill="url(#paint6_linear_324_1152)"/>
<path d="M16.987 4.1449C17.3141 4.1449 17.5792 3.87996 17.5792 3.55313C17.5792 3.22631 17.3141 2.96136 16.987 2.96136C16.6599 2.96136 16.3947 3.22631 16.3947 3.55313C16.3947 3.87996 16.6599 4.1449 16.987 4.1449Z" fill="url(#paint7_radial_324_1152)"/>
<path d="M16.987 1H16.9868C16.7893 1 16.6292 1.16001 16.6292 1.35738V3.34818C16.6292 3.54556 16.7893 3.70557 16.9868 3.70557H16.987C17.1845 3.70557 17.3447 3.54556 17.3447 3.34818V1.35738C17.3447 1.16001 17.1845 1 16.987 1Z" fill="url(#paint8_linear_324_1152)"/>
<path d="M7.14746 7.48914H6.08675C5.93906 7.48914 5.81934 7.60876 5.81934 7.75633V8.81613C5.81934 8.9637 5.93906 9.08332 6.08675 9.08332H7.14746C7.29515 9.08332 7.41488 8.9637 7.41488 8.81613V7.75633C7.41488 7.60876 7.29515 7.48914 7.14746 7.48914Z" fill="#A6A2A2"/>
<path d="M12.4597 7.48914H11.399C11.2513 7.48914 11.1316 7.60876 11.1316 7.75633V8.81613C11.1316 8.9637 11.2513 9.08332 11.399 9.08332H12.4597C12.6074 9.08332 12.7271 8.9637 12.7271 8.81613V7.75633C12.7271 7.60876 12.6074 7.48914 12.4597 7.48914Z" fill="#A6A2A2"/>
<path d="M17.7722 7.48914H16.7115C16.5638 7.48914 16.4441 7.60876 16.4441 7.75633V8.81613C16.4441 8.9637 16.5638 9.08332 16.7115 9.08332H17.7722C17.9199 9.08332 18.0396 8.9637 18.0396 8.81613V7.75633C18.0396 7.60876 17.9199 7.48914 17.7722 7.48914Z" fill="#A6A2A2"/>
<path d="M4.49121 7.48914H3.4305C3.28281 7.48914 3.16309 7.60876 3.16309 7.75633V8.81613C3.16309 8.9637 3.28281 9.08332 3.4305 9.08332H4.49121C4.6389 9.08332 4.75863 8.9637 4.75863 8.81613V7.75633C4.75863 7.60876 4.6389 7.48914 4.49121 7.48914Z" fill="#A6A2A2"/>
<path d="M15.1159 7.48914H14.0552C13.9075 7.48914 13.7878 7.60876 13.7878 7.75633V8.81613C13.7878 8.9637 13.9075 9.08332 14.0552 9.08332H15.1159C15.2636 9.08332 15.3834 8.9637 15.3834 8.81613V7.75633C15.3834 7.60876 15.2636 7.48914 15.1159 7.48914Z" fill="#A6A2A2"/>
<path d="M9.80371 7.48914H8.743C8.59531 7.48914 8.47559 7.60876 8.47559 7.75633V8.81613C8.47559 8.9637 8.59531 9.08332 8.743 9.08332H9.80371C9.9514 9.08332 10.0711 8.9637 10.0711 8.81613V7.75633C10.0711 7.60876 9.9514 7.48914 9.80371 7.48914Z" fill="#A6A2A2"/>
<path d="M12.4597 10.0719H11.399C11.2513 10.0719 11.1316 10.1915 11.1316 10.3391V11.3989C11.1316 11.5465 11.2513 11.6661 11.399 11.6661H12.4597C12.6074 11.6661 12.7271 11.5465 12.7271 11.3989V10.3391C12.7271 10.1915 12.6074 10.0719 12.4597 10.0719Z" fill="#A6A2A2"/>
<path d="M15.1159 10.0719H14.0552C13.9075 10.0719 13.7878 10.1915 13.7878 10.3391V11.3989C13.7878 11.5465 13.9075 11.6661 14.0552 11.6661H15.1159C15.2636 11.6661 15.3834 11.5465 15.3834 11.3989V10.3391C15.3834 10.1915 15.2636 10.0719 15.1159 10.0719Z" fill="#A6A2A2"/>
<path d="M17.7722 10.0719H16.7115C16.5638 10.0719 16.4441 10.1915 16.4441 10.3391V11.3989C16.4441 11.5465 16.5638 11.6661 16.7115 11.6661H17.7722C17.9199 11.6661 18.0396 11.5465 18.0396 11.3989V10.3391C18.0396 10.1915 17.9199 10.0719 17.7722 10.0719Z" fill="#A6A2A2"/>
<path d="M4.49121 10.0719H3.4305C3.28281 10.0719 3.16309 10.1915 3.16309 10.3391V11.3989C3.16309 11.5465 3.28281 11.6661 3.4305 11.6661H4.49121C4.6389 11.6661 4.75863 11.5465 4.75863 11.3989V10.3391C4.75863 10.1915 4.6389 10.0719 4.49121 10.0719Z" fill="#A6A2A2"/>
<path d="M7.14746 10.0719H6.08675C5.93906 10.0719 5.81934 10.1915 5.81934 10.3391V11.3989C5.81934 11.5465 5.93906 11.6661 6.08675 11.6661H7.14746C7.29515 11.6661 7.41488 11.5465 7.41488 11.3989V10.3391C7.41488 10.1915 7.29515 10.0719 7.14746 10.0719Z" fill="#A6A2A2"/>
<path d="M9.80371 10.0719H8.743C8.59531 10.0719 8.47559 10.1915 8.47559 10.3391V11.3989C8.47559 11.5465 8.59531 11.6661 8.743 11.6661H9.80371C9.9514 11.6661 10.0711 11.5465 10.0711 11.3989V10.3391C10.0711 10.1915 9.9514 10.0719 9.80371 10.0719Z" fill="#A6A2A2"/>
<path d="M15.1159 12.6545H14.0552C13.9075 12.6545 13.7878 12.7741 13.7878 12.9217V13.9815C13.7878 14.129 13.9075 14.2487 14.0552 14.2487H15.1159C15.2636 14.2487 15.3834 14.129 15.3834 13.9815V12.9217C15.3834 12.7741 15.2636 12.6545 15.1159 12.6545Z" fill="#A6A2A2"/>
<path d="M12.4597 12.6545H11.399C11.2513 12.6545 11.1316 12.7741 11.1316 12.9217V13.9815C11.1316 14.129 11.2513 14.2487 11.399 14.2487H12.4597C12.6074 14.2487 12.7271 14.129 12.7271 13.9815V12.9217C12.7271 12.7741 12.6074 12.6545 12.4597 12.6545Z" fill="#A6A2A2"/>
<path d="M17.7722 12.6545H16.7115C16.5638 12.6545 16.4441 12.7741 16.4441 12.9217V13.9815C16.4441 14.129 16.5638 14.2487 16.7115 14.2487H17.7722C17.9199 14.2487 18.0396 14.129 18.0396 13.9815V12.9217C18.0396 12.7741 17.9199 12.6545 17.7722 12.6545Z" fill="#A6A2A2"/>
<path d="M9.80371 12.6545H8.743C8.59531 12.6545 8.47559 12.7741 8.47559 12.9217V13.9815C8.47559 14.129 8.59531 14.2487 8.743 14.2487H9.80371C9.9514 14.2487 10.0711 14.129 10.0711 13.9815V12.9217C10.0711 12.7741 9.9514 12.6545 9.80371 12.6545Z" fill="#A6A2A2"/>
<path d="M7.14746 12.6545H6.08675C5.93906 12.6545 5.81934 12.7741 5.81934 12.9217V13.9815C5.81934 14.129 5.93906 14.2487 6.08675 14.2487H7.14746C7.29515 14.2487 7.41488 14.129 7.41488 13.9815V12.9217C7.41488 12.7741 7.29515 12.6545 7.14746 12.6545Z" fill="#A6A2A2"/>
<path d="M4.49121 12.6545H3.4305C3.28281 12.6545 3.16309 12.7741 3.16309 12.9217V13.9815C3.16309 14.129 3.28281 14.2487 3.4305 14.2487H4.49121C4.6389 14.2487 4.75863 14.129 4.75863 13.9815V12.9217C4.75863 12.7741 4.6389 12.6545 4.49121 12.6545Z" fill="#A6A2A2"/>
<path d="M12.4597 15.2372H11.399C11.2513 15.2372 11.1316 15.3568 11.1316 15.5044V16.5642C11.1316 16.7117 11.2513 16.8314 11.399 16.8314H12.4597C12.6074 16.8314 12.7271 16.7117 12.7271 16.5642V15.5044C12.7271 15.3568 12.6074 15.2372 12.4597 15.2372Z" fill="#A6A2A2"/>
<path d="M17.7722 15.2372H16.7115C16.5638 15.2372 16.4441 15.3568 16.4441 15.5044V16.5642C16.4441 16.7117 16.5638 16.8314 16.7115 16.8314H17.7722C17.9199 16.8314 18.0396 16.7117 18.0396 16.5642V15.5044C18.0396 15.3568 17.9199 15.2372 17.7722 15.2372Z" fill="#A6A2A2"/>
<path d="M15.1159 15.2372H14.0552C13.9075 15.2372 13.7878 15.3568 13.7878 15.5044V16.5642C13.7878 16.7117 13.9075 16.8314 14.0552 16.8314H15.1159C15.2636 16.8314 15.3834 16.7117 15.3834 16.5642V15.5044C15.3834 15.3568 15.2636 15.2372 15.1159 15.2372Z" fill="#A6A2A2"/>
<path d="M9.80371 15.2372H8.743C8.59531 15.2372 8.47559 15.3568 8.47559 15.5044V16.5642C8.47559 16.7117 8.59531 16.8314 8.743 16.8314H9.80371C9.9514 16.8314 10.0711 16.7117 10.0711 16.5642V15.5044C10.0711 15.3568 9.9514 15.2372 9.80371 15.2372Z" fill="#A6A2A2"/>
<path d="M7.14746 15.2372H6.08675C5.93906 15.2372 5.81934 15.3568 5.81934 15.5044V16.5642C5.81934 16.7117 5.93906 16.8314 6.08675 16.8314H7.14746C7.29515 16.8314 7.41488 16.7117 7.41488 16.5642V15.5044C7.41488 15.3568 7.29515 15.2372 7.14746 15.2372Z" fill="#A6A2A2"/>
<path d="M4.49121 15.2372H3.4305C3.28281 15.2372 3.16309 15.3568 3.16309 15.5044V16.5642C3.16309 16.7117 3.28281 16.8314 3.4305 16.8314H4.49121C4.6389 16.8314 4.75863 16.7117 4.75863 16.5642V15.5044C4.75863 15.3568 4.6389 15.2372 4.49121 15.2372Z" fill="#A6A2A2"/>
<path d="M4.49121 17.8198H3.4305C3.28281 17.8198 3.16309 17.9395 3.16309 18.087V19.1468C3.16309 19.2944 3.28281 19.414 3.4305 19.414H4.49121C4.6389 19.414 4.75863 19.2944 4.75863 19.1468V18.087C4.75863 17.9395 4.6389 17.8198 4.49121 17.8198Z" fill="#A6A2A2"/>
<path d="M7.14746 17.8198H6.08675C5.93906 17.8198 5.81934 17.9395 5.81934 18.087V19.1468C5.81934 19.2944 5.93906 19.414 6.08675 19.414H7.14746C7.29515 19.414 7.41488 19.2944 7.41488 19.1468V18.087C7.41488 17.9395 7.29515 17.8198 7.14746 17.8198Z" fill="#A6A2A2"/>
<path d="M9.80371 17.8198H8.743C8.59531 17.8198 8.47559 17.9395 8.47559 18.087V19.1468C8.47559 19.2944 8.59531 19.414 8.743 19.414H9.80371C9.9514 19.414 10.0711 19.2944 10.0711 19.1468V18.087C10.0711 17.9395 9.9514 17.8198 9.80371 17.8198Z" fill="#A6A2A2"/>
</g>
<defs>
<filter id="filter0_d_324_1152" x="0.7" y="0.7" width="19.8027" height="20.6" filterUnits="userSpaceOnUse" color-interpolation-filters="sRGB">
<feFlood flood-opacity="0" result="BackgroundImageFix"/>
<feColorMatrix in="SourceAlpha" type="matrix" values="0 0 0 0 0 0 0 0 0 0 0 0 0 0 0 0 0 0 127 0" result="hardAlpha"/>
<feOffset/>
<feGaussianBlur stdDeviation="0.15"/>
<feComposite in2="hardAlpha" operator="out"/>
<feColorMatrix type="matrix" values="0 0 0 0 0 0 0 0 0 0 0 0 0 0 0 0 0 0 1 0"/>
<feBlend mode="normal" in2="BackgroundImageFix" result="effect1_dropShadow_324_1152"/>
<feBlend mode="normal" in="SourceGraphic" in2="effect1_dropShadow_324_1152" result="shape"/>
</filter>
<linearGradient id="paint0_linear_324_1152" x1="10.6013" y1="2.07431" x2="10.6013" y2="6.21475" gradientUnits="userSpaceOnUse">
<stop stop-color="#E85F43"/>
<stop offset="1" stop-color="#E83636"/>
</linearGradient>
<radialGradient id="paint1_radial_324_1152" cx="0" cy="0" r="1" gradientUnits="userSpaceOnUse" gradientTransform="translate(4.21568 3.55313) scale(0.592271 0.591767)">
<stop stop-color="#8C1F1F"/>
<stop offset="0.84" stop-color="#450F0F"/>
<stop offset="1" stop-color="#2B0808"/>
</radialGradient>
<linearGradient id="paint2_linear_324_1152" x1="3.858" y1="2.35278" x2="4.57338" y2="2.35278" gradientUnits="userSpaceOnUse">
<stop stop-color="#4F4F4F"/>
<stop offset="0.29" stop-color="#BDBDBD"/>
<stop offset="0.62" stop-color="#BDBDBD"/>
<stop offset="1" stop-color="#4F4F4F"/>
</linearGradient>
<radialGradient id="paint3_radial_324_1152" cx="0" cy="0" r="1" gradientUnits="userSpaceOnUse" gradientTransform="translate(8.47283 3.55313) scale(0.592272 0.591767)">
<stop stop-color="#8C1F1F"/>
<stop offset="0.84" stop-color="#450F0F"/>
<stop offset="1" stop-color="#2B0808"/>
</radialGradient>
<linearGradient id="paint4_linear_324_1152" x1="8.11501" y1="2.35278" x2="8.83051" y2="2.35278" gradientUnits="userSpaceOnUse">
<stop stop-color="#4F4F4F"/>
<stop offset="0.29" stop-color="#BDBDBD"/>
<stop offset="0.62" stop-color="#BDBDBD"/>
<stop offset="1" stop-color="#4F4F4F"/>
</linearGradient>
<radialGradient id="paint5_radial_324_1152" cx="0" cy="0" r="1" gradientUnits="userSpaceOnUse" gradientTransform="translate(12.7298 3.55313) scale(0.592272 0.591767)">
<stop stop-color="#8C1F1F"/>
<stop offset="0.84" stop-color="#450F0F"/>
<stop offset="1" stop-color="#2B0808"/>
</radialGradient>
<linearGradient id="paint6_linear_324_1152" x1="12.3721" y1="2.35278" x2="13.0875" y2="2.35278" gradientUnits="userSpaceOnUse">
<stop stop-color="#4F4F4F"/>
<stop offset="0.29" stop-color="#BDBDBD"/>
<stop offset="0.62" stop-color="#BDBDBD"/>
<stop offset="1" stop-color="#4F4F4F"/>
</linearGradient>
<radialGradient id="paint7_radial_324_1152" cx="0" cy="0" r="1" gradientUnits="userSpaceOnUse" gradientTransform="translate(16.987 3.55313) scale(0.592272 0.591767)">
<stop stop-color="#8C1F1F"/>
<stop offset="0.84" stop-color="#450F0F"/>
<stop offset="1" stop-color="#2B0808"/>
</radialGradient>
<linearGradient id="paint8_linear_324_1152" x1="16.6292" y1="2.35278" x2="17.3447" y2="2.35278" gradientUnits="userSpaceOnUse">
<stop stop-color="#4F4F4F"/>
<stop offset="0.29" stop-color="#BDBDBD"/>
<stop offset="0.62" stop-color="#BDBDBD"/>
<stop offset="1" stop-color="#4F4F4F"/>
</linearGradient>
</defs>
</svg>
