<svg width="17" height="17" viewBox="0 0 17 17" fill="none" xmlns="http://www.w3.org/2000/svg">
<g clip-path="url(#clip0_324_2447)">
<path d="M8.18191 16.5004C12.6003 16.5004 16.1821 12.9186 16.1821 8.50019C16.1821 4.08181 12.6003 0.5 8.18191 0.5C3.76353 0.5 0.181717 4.08181 0.181717 8.50019C0.181717 12.9186 3.76353 16.5004 8.18191 16.5004Z" fill="#F4CD27"/>
<path d="M8.18191 14.7506C11.6339 14.7506 14.4323 11.9522 14.4323 8.5002C14.4323 5.04821 11.6339 2.24982 8.18191 2.24982C4.72992 2.24982 1.93153 5.04821 1.93153 8.5002C1.93153 11.9522 4.72992 14.7506 8.18191 14.7506Z" fill="#DB8E28"/>
<path d="M8.18191 14.4563C11.4714 14.4563 14.1381 11.7897 14.1381 8.5002C14.1381 5.21071 11.4714 2.54405 8.18191 2.54405C4.89242 2.54405 2.22576 5.21071 2.22576 8.5002C2.22576 11.7897 4.89242 14.4563 8.18191 14.4563Z" fill="#EFA726"/>
</g>
<defs>
<clipPath id="clip0_324_2447">
<rect width="16" height="16" fill="white" transform="translate(0.181717 0.5)"/>
</clipPath>
</defs>
</svg>
