<svg width="23" height="22" viewBox="0 0 23 22" fill="none" xmlns="http://www.w3.org/2000/svg">
<g filter="url(#filter0_d_324_156)">
<path d="M10.9764 20.0005C16.7624 20.0005 21.4529 15.5232 21.4529 10.0002C21.4529 4.47726 16.7624 0 10.9764 0C5.19046 0 0.5 4.47726 0.5 10.0002C0.5 15.5232 5.19046 20.0005 10.9764 20.0005Z" fill="#F4CD27"/>
<path d="M10.9764 17.8132C15.4969 17.8132 19.1614 14.3152 19.1614 10.0002C19.1614 5.68525 15.4969 2.18726 10.9764 2.18726C6.45594 2.18726 2.79138 5.68525 2.79138 10.0002C2.79138 14.3152 6.45594 17.8132 10.9764 17.8132Z" fill="#DB8E28"/>
<path d="M10.9765 17.4454C15.2841 17.4454 18.7762 14.1121 18.7762 10.0002C18.7762 5.88838 15.2841 2.55505 10.9765 2.55505C6.66881 2.55505 3.17676 5.88838 3.17676 10.0002C3.17676 14.1121 6.66881 17.4454 10.9765 17.4454Z" fill="#EFA726"/>
</g>
<defs>
<filter id="filter0_d_324_156" x="0.5" y="0" width="22" height="23.5" filterUnits="userSpaceOnUse" color-interpolation-filters="sRGB">
<feFlood flood-opacity="0" result="BackgroundImageFix"/>
<feColorMatrix in="SourceAlpha" type="matrix" values="0 0 0 0 0 0 0 0 0 0 0 0 0 0 0 0 0 0 127 0" result="hardAlpha"/>
<feOffset dy="1.5"/>
<feComposite in2="hardAlpha" operator="out"/>
<feColorMatrix type="matrix" values="0 0 0 0 0.976471 0 0 0 0 0.733333 0 0 0 0 0.137255 0 0 0 1 0"/>
<feBlend mode="normal" in2="BackgroundImageFix" result="effect1_dropShadow_324_156"/>
<feBlend mode="normal" in="SourceGraphic" in2="effect1_dropShadow_324_156" result="shape"/>
</filter>
</defs>
</svg>
