<svg xmlns="http://www.w3.org/2000/svg" width="18" height="18" viewBox="0 0 18 18" fill="none">
  <path d="M4.3681 2.7239L9.0001 7.3559L13.6081 2.7479C13.7099 2.63956 13.8325 2.5529 13.9686 2.4931C14.1047 2.4333 14.2515 2.4016 14.4001 2.3999C14.7184 2.3999 15.0236 2.52633 15.2486 2.75137C15.4737 2.97642 15.6001 3.28164 15.6001 3.5999C15.6029 3.74702 15.5756 3.89317 15.5199 4.02936C15.4642 4.16555 15.3812 4.28892 15.2761 4.3919L10.6081 8.9999L15.2761 13.6679C15.4739 13.8614 15.5898 14.1234 15.6001 14.3999C15.6001 14.7182 15.4737 15.0234 15.2486 15.2484C15.0236 15.4735 14.7184 15.5999 14.4001 15.5999C14.2472 15.6062 14.0946 15.5807 13.952 15.5249C13.8095 15.4692 13.6801 15.3844 13.5721 15.2759L9.0001 10.6439L4.3801 15.2639C4.2787 15.3686 4.15758 15.4522 4.0237 15.5099C3.88982 15.5676 3.74585 15.5982 3.6001 15.5999C3.28184 15.5999 2.97661 15.4735 2.75157 15.2484C2.52653 15.0234 2.4001 14.7182 2.4001 14.3999C2.3973 14.2528 2.4246 14.1066 2.48031 13.9704C2.53603 13.8343 2.61899 13.7109 2.7241 13.6079L7.3921 8.9999L2.7241 4.3319C2.52632 4.13841 2.41035 3.8764 2.4001 3.5999C2.4001 3.28164 2.52653 2.97642 2.75157 2.75137C2.97661 2.52633 3.28184 2.3999 3.6001 2.3999C3.8881 2.4035 4.1641 2.5199 4.3681 2.7239Z" fill="#3C4043"/>
</svg>