<svg width="19" height="16" viewBox="0 0 19 16" fill="none" xmlns="http://www.w3.org/2000/svg">
<path d="M9.9298 15.9998L9.52646 15.7486C7.52132 14.4976 5.64302 13.0551 3.91811 11.4416C2.88434 10.4752 1.85228 9.38211 1.30904 7.93822C0.926061 6.92099 0.830888 5.78595 1.03342 4.65585C1.2369 3.52043 1.72076 2.50396 2.43341 1.71457C3.90878 0.0788901 6.3041 -0.455525 8.258 0.412781C8.87776 0.68862 9.44404 1.09877 9.93 1.61991C10.4159 1.09877 10.9822 0.68862 11.602 0.412781C13.5551 -0.455525 15.9504 0.0788901 17.4268 1.71457C18.1387 2.50339 18.6223 3.52043 18.826 4.65509C19.0285 5.78519 18.9332 6.92023 18.5504 7.93708C18.0068 9.38249 16.9758 10.4756 15.9407 11.4416C14.216 13.0548 12.338 14.4971 10.3331 15.748L9.9298 15.9998Z" fill="#C6C4C4"/>
</svg>
