<svg width="19" height="17" viewBox="0 0 19 17" fill="none" xmlns="http://www.w3.org/2000/svg">
<g clip-path="url(#clip0_324_2438)">
<path d="M9.80084 16.5L9.39828 16.2488C7.39705 14.9978 5.52243 13.5553 3.80088 11.9418C2.76913 10.9754 1.73909 9.88234 1.19691 8.43845C0.814679 7.42122 0.719692 6.28618 0.921825 5.15608C1.12491 4.02066 1.60782 3.00419 2.31909 2.2148C3.79158 0.579119 6.18221 0.0447043 8.1323 0.91301C8.75085 1.18885 9.31603 1.599 9.80103 2.12014C10.286 1.599 10.8512 1.18885 11.4698 0.91301C13.4191 0.0447043 15.8097 0.579119 17.2832 2.2148C17.9937 3.00362 18.4764 4.02066 18.6797 5.15532C18.8818 6.28542 18.7866 7.42046 18.4046 8.43731C17.862 9.88272 16.8331 10.9758 15.8 11.9418C14.0786 13.555 12.2043 14.9973 10.2034 16.2483L9.80084 16.5Z" fill="#D7321A"/>
</g>
<defs>
<clipPath id="clip0_324_2438">
<rect width="17.9649" height="16" fill="white" transform="translate(0.818283 0.5)"/>
</clipPath>
</defs>
</svg>
