<svg width="23" height="22" viewBox="0 0 23 22" fill="none" xmlns="http://www.w3.org/2000/svg">
<g filter="url(#filter0_d_324_902)">
<path d="M11.5001 19.9999L11.0072 19.6859C8.55643 18.1221 6.26074 16.3191 4.15252 14.3022C2.88902 13.0942 1.62762 11.7278 0.96365 9.92294C0.495568 8.65141 0.379245 7.23261 0.62678 5.81998C0.875477 4.4007 1.46686 3.13012 2.33788 2.14339C4.14112 0.0987804 7.06872 -0.569238 9.45682 0.516144C10.2143 0.860943 10.9064 1.37364 11.5004 2.02505C12.0943 1.37364 12.7864 0.860943 13.5439 0.516144C15.9311 -0.569238 18.8587 0.0987804 20.6631 2.14339C21.5332 3.12941 22.1243 4.4007 22.3733 5.81903C22.6208 7.23166 22.5043 8.65046 22.0364 9.92152C21.372 11.7283 20.112 13.0947 18.8468 14.3022C16.7388 16.3187 14.4434 18.1215 11.9931 19.6852L11.5001 19.9999Z" fill="#DF503B"/>
</g>
<defs>
<filter id="filter0_d_324_902" x="0.5" y="0.000473022" width="22" height="21.4994" filterUnits="userSpaceOnUse" color-interpolation-filters="sRGB">
<feFlood flood-opacity="0" result="BackgroundImageFix"/>
<feColorMatrix in="SourceAlpha" type="matrix" values="0 0 0 0 0 0 0 0 0 0 0 0 0 0 0 0 0 0 127 0" result="hardAlpha"/>
<feOffset dy="1.5"/>
<feComposite in2="hardAlpha" operator="out"/>
<feColorMatrix type="matrix" values="0 0 0 0 0.843137 0 0 0 0 0.196078 0 0 0 0 0.101961 0 0 0 1 0"/>
<feBlend mode="normal" in2="BackgroundImageFix" result="effect1_dropShadow_324_902"/>
<feBlend mode="normal" in="SourceGraphic" in2="effect1_dropShadow_324_902" result="shape"/>
</filter>
</defs>
</svg>
