<svg width="603" height="498" viewBox="0 0 603 498" fill="none" xmlns="http://www.w3.org/2000/svg">
<g filter="url(#filter0_d_329_17)">
<path fill-rule="evenodd" clip-rule="evenodd" d="M542.627 437.674L542.627 446.606C542.627 466.339 526.631 482.335 506.898 482.335H498.019C498.001 482.335 497.984 482.335 497.966 482.335L120.584 482.335H104.952C80.2871 482.335 60.2918 462.34 60.2918 437.674L60.2918 180.786C60.274 141.103 48.3192 150.49 35.061 160.9C18.5422 173.87 0 188.43 0 111.652C0 34.8734 18.5422 50.1195 35.061 63.7018C48.3227 74.6061 60.2803 84.4381 60.2919 44.7184V35.7285C60.2919 15.9962 76.2881 -1.72505e-06 96.0204 0L104.953 1.37969e-05H253.838H497.966C522.632 1.37969e-05 542.627 19.9953 542.627 44.6607V60.2919V75.3649V150.73L542.627 301.459C542.627 301.511 542.627 301.563 542.627 301.615C542.658 341.222 554.607 331.84 567.858 321.435C584.376 308.464 602.919 293.905 602.919 370.683C602.919 447.461 584.376 432.215 567.858 418.633C554.607 407.738 542.658 397.913 542.627 437.519C542.627 437.571 542.627 437.622 542.627 437.674Z" fill="url(#paint0_linear_329_17)"/>
</g>
<g filter="url(#filter1_d_329_17)">
<rect x="120.279" y="422.043" width="361.751" height="361.751" rx="37.3042" transform="rotate(-90 120.279 422.043)" fill="url(#paint1_linear_329_17)"/>
</g>
<path d="M442.167 266.795C440.831 266.795 439.374 266.431 437.794 265.702C436.337 264.852 434.758 263.941 433.057 262.969L373.84 228.168C372.382 227.196 371.289 225.981 370.56 224.523C369.831 222.944 369.467 221.365 369.467 219.786C369.467 218.085 369.831 216.506 370.56 215.049C371.289 213.47 372.382 212.255 373.84 211.405L433.057 177.332C434.636 176.36 436.094 175.631 437.43 175.145C438.888 174.538 440.224 174.234 441.439 174.234C443.868 174.234 446.115 175.449 448.18 177.879C450.367 180.186 451.46 182.616 451.46 185.167C451.46 186.381 451.096 187.596 450.367 188.811C449.759 189.904 448.788 190.876 447.451 191.726L384.226 228.35L382.95 210.129L447.269 248.575C448.727 249.425 449.759 250.518 450.367 251.854C450.974 253.069 451.278 254.345 451.278 255.681C451.278 258.596 450.245 261.208 448.18 263.516C446.237 265.702 444.232 266.795 442.167 266.795Z" fill="#3C4043"/>
<path d="M160.021 264.606C157.592 264.606 155.284 263.452 153.098 261.144C151.033 258.715 150 256.224 150 253.674C150 252.337 150.304 251.123 150.911 250.029C151.64 248.936 152.672 247.964 154.009 247.114L217.234 210.491L218.51 228.711L154.191 190.266C152.733 189.415 151.701 188.383 151.093 187.168C150.486 185.832 150.182 184.496 150.182 183.16C150.182 180.244 151.215 177.693 153.28 175.507C155.345 173.199 157.349 172.045 159.293 172.045C160.629 172.045 162.026 172.47 163.483 173.32C165.062 174.049 166.702 174.899 168.403 175.871L227.62 210.673C229.078 211.523 230.171 212.738 230.9 214.317C231.629 215.775 231.993 217.354 231.993 219.054C231.993 220.755 231.629 222.395 230.9 223.974C230.171 225.432 229.078 226.585 227.62 227.436L168.403 261.508C166.824 262.359 165.366 263.088 164.03 263.695C162.694 264.302 161.358 264.606 160.021 264.606Z" fill="#3C4043"/>
<path d="M365 327.121C365 329.127 364.324 330.799 362.971 332.137C361.715 333.379 360.072 334 358.043 334L242.957 334C240.928 334 239.285 333.379 238.029 332.137C236.676 330.799 236 329.127 236 327.121L236 296.879C236 294.873 236.676 293.249 238.029 292.007C239.285 290.669 240.928 290 242.957 290C244.89 290 246.533 290.669 247.885 292.007C249.142 293.249 249.77 294.873 249.77 296.879L249.77 318.235L248.61 317.518L352.97 317.518L351.23 319.238L351.23 296.879C351.23 294.873 351.858 293.249 353.115 292.007C354.467 290.669 356.158 290 358.188 290C360.12 290 361.715 290.669 362.971 292.007C364.324 293.249 365 294.873 365 296.879L365 327.121Z" fill="#3C4043"/>
<defs>
<filter id="filter0_d_329_17" x="0" y="0" width="602.919" height="497.56" filterUnits="userSpaceOnUse" color-interpolation-filters="sRGB">
<feFlood flood-opacity="0" result="BackgroundImageFix"/>
<feColorMatrix in="SourceAlpha" type="matrix" values="0 0 0 0 0 0 0 0 0 0 0 0 0 0 0 0 0 0 127 0" result="hardAlpha"/>
<feOffset dy="15.2252"/>
<feComposite in2="hardAlpha" operator="out"/>
<feColorMatrix type="matrix" values="0 0 0 0 0.00941296 0 0 0 0 0.570451 0 0 0 0 0.847179 0 0 0 1 0"/>
<feBlend mode="normal" in2="BackgroundImageFix" result="effect1_dropShadow_329_17"/>
<feBlend mode="normal" in="SourceGraphic" in2="effect1_dropShadow_329_17" result="shape"/>
</filter>
<filter id="filter1_d_329_17" x="120.279" y="60.292" width="361.751" height="376.976" filterUnits="userSpaceOnUse" color-interpolation-filters="sRGB">
<feFlood flood-opacity="0" result="BackgroundImageFix"/>
<feColorMatrix in="SourceAlpha" type="matrix" values="0 0 0 0 0 0 0 0 0 0 0 0 0 0 0 0 0 0 127 0" result="hardAlpha"/>
<feOffset dy="15.2252"/>
<feComposite in2="hardAlpha" operator="out"/>
<feColorMatrix type="matrix" values="0 0 0 0 0.670588 0 0 0 0 0.670588 0 0 0 0 0.670588 0 0 0 1 0"/>
<feBlend mode="normal" in2="BackgroundImageFix" result="effect1_dropShadow_329_17"/>
<feBlend mode="normal" in="SourceGraphic" in2="effect1_dropShadow_329_17" result="shape"/>
</filter>
<linearGradient id="paint0_linear_329_17" x1="301.459" y1="0" x2="301.459" y2="482.335" gradientUnits="userSpaceOnUse">
<stop stop-color="#24B9FF"/>
<stop offset="1" stop-color="#17A2FF"/>
</linearGradient>
<linearGradient id="paint1_linear_329_17" x1="301.155" y1="422.043" x2="301.155" y2="783.794" gradientUnits="userSpaceOnUse">
<stop stop-color="white"/>
<stop offset="1" stop-color="#EFEFEF"/>
</linearGradient>
</defs>
</svg>
