<svg  width="39" height="32" viewBox="0 0 39 32" fill="none" xmlns="http://www.w3.org/2000/svg">
    <g id="Group 18">
    <g id="Group 15">
    <g id="Union" filter="url(#filter0_d_339_3676)">
    <path fill-rule="evenodd" clip-rule="evenodd" d="M4.55812 2.67639C4.51597 2.86861 4.49375 3.06828 4.49375 3.27315C4.49375 5.74367 3.75094 5.1329 2.92707 4.45549C1.90136 3.61211 0.75 2.66542 0.75 7.43287C0.75 12.2003 1.90136 11.2963 2.92707 10.4909C3.75094 9.84398 4.49375 9.26073 4.49375 11.7313V21.0906V25.7703V26.7063C4.49375 26.9401 4.5152 27.169 4.55624 27.391V27.7269C4.55624 29.2584 5.79782 30.5 7.32938 30.5L31.7331 30.5C31.9138 30.5 32.0905 30.4827 32.2615 30.4497C33.4393 30.4308 34.3941 29.4941 34.4419 28.3236C34.484 28.1314 34.5062 27.9317 34.5062 27.7269C34.5062 25.2563 35.2491 25.8671 36.0729 26.5445C37.0986 27.3879 38.25 28.3346 38.25 23.5671C38.25 18.7997 37.0986 19.7037 36.0729 20.5091C35.2491 21.156 34.5062 21.7393 34.5062 19.2688V9.90938V5.22969V4.29375C34.5062 4.05985 34.4848 3.83096 34.4438 3.60895V3.27315C34.4438 1.74158 33.2022 0.5 31.6706 0.5H7.2669C7.0862 0.5 6.90953 0.517283 6.73847 0.550287C5.56069 0.569176 4.60593 1.50586 4.55812 2.67639Z" fill="url(#paint0_linear_339_3676)"/>
    </g>
    <g id="Rectangle 11" filter="url(#filter1_d_339_3676)">
    <rect x="8.23096" y="26.75" width="22.5" height="22.5" rx="2.31636" transform="rotate(-90 8.23096 26.75)" fill="url(#paint1_linear_339_3676)"/>
    </g>
    </g>
    <g id="Group 16">
    <path id="Vector" d="M28.2513 17.094C28.1682 17.094 28.0775 17.0713 27.9793 17.026C27.8886 16.9731 27.7904 16.9164 27.6846 16.856L24.0015 14.6914C23.9108 14.631 23.8428 14.5554 23.7975 14.4648C23.7522 14.3666 23.7295 14.2683 23.7295 14.1701C23.7295 14.0644 23.7522 13.9661 23.7975 13.8755C23.8428 13.7773 23.9108 13.7017 24.0015 13.6488L27.6846 11.5296C27.7829 11.4691 27.8735 11.4238 27.9566 11.3936C28.0473 11.3558 28.1304 11.3369 28.2059 11.3369C28.3571 11.3369 28.4968 11.4125 28.6253 11.5636C28.7613 11.7071 28.8293 11.8582 28.8293 12.0169C28.8293 12.0924 28.8066 12.168 28.7613 12.2436C28.7235 12.3116 28.663 12.372 28.5799 12.4249L24.6474 14.7028L24.5681 13.5695L28.5686 15.9607C28.6593 16.0136 28.7235 16.0816 28.7613 16.1647C28.799 16.2403 28.8179 16.3196 28.8179 16.4027C28.8179 16.584 28.7537 16.7465 28.6253 16.89C28.5044 17.026 28.3797 17.094 28.2513 17.094Z" fill="#3C4043"/>
    <path id="Vector_2" d="M10.7029 16.9577C10.5518 16.9577 10.4082 16.886 10.2722 16.7424C10.1438 16.5913 10.0796 16.4364 10.0796 16.2778C10.0796 16.1947 10.0985 16.1191 10.1363 16.0511C10.1816 15.9831 10.2458 15.9227 10.3289 15.8698L14.2614 13.5919L14.3407 14.7252L10.3402 12.334C10.2496 12.2811 10.1854 12.2169 10.1476 12.1413C10.1098 12.0582 10.0909 11.9751 10.0909 11.892C10.0909 11.7107 10.1551 11.552 10.2836 11.416C10.412 11.2725 10.5367 11.2007 10.6576 11.2007C10.7407 11.2007 10.8276 11.2271 10.9182 11.28C11.0164 11.3253 11.1184 11.3782 11.2242 11.4387L14.9074 13.6032C14.998 13.6561 15.066 13.7317 15.1114 13.8299C15.1567 13.9206 15.1793 14.0188 15.1793 14.1245C15.1793 14.2303 15.1567 14.3323 15.1114 14.4305C15.066 14.5212 14.998 14.593 14.9074 14.6459L11.2242 16.7651C11.126 16.818 11.0353 16.8633 10.9522 16.9011C10.8691 16.9389 10.786 16.9577 10.7029 16.9577Z" fill="#3C4043"/>
    </g>
    <path id="[" d="M23.4517 20.8462C23.4517 20.971 23.4096 21.075 23.3255 21.1582C23.2473 21.2354 23.1452 21.2741 23.019 21.2741L15.8609 21.2741C15.7347 21.2741 15.6326 21.2354 15.5544 21.1582C15.4703 21.075 15.4282 20.971 15.4282 20.8462L15.4282 18.9653C15.4282 18.8405 15.4703 18.7394 15.5544 18.6622C15.6326 18.579 15.7347 18.5374 15.8609 18.5374C15.9812 18.5374 16.0833 18.579 16.1675 18.6622C16.2456 18.7394 16.2847 18.8405 16.2847 18.9653L16.2847 20.2935L16.2125 20.2489L22.7034 20.2489L22.5953 20.3559L22.5953 18.9653C22.5953 18.8405 22.6343 18.7394 22.7125 18.6622C22.7966 18.579 22.9018 18.5374 23.028 18.5374C23.1482 18.5374 23.2473 18.579 23.3255 18.6622C23.4096 18.7394 23.4517 18.8405 23.4517 18.9653L23.4517 20.8462Z" fill="#3C4043"/>
    </g>
    <defs>
    <filter id="filter0_d_339_3676" x="0.75" y="0.5" width="37.5" height="31.2479" filterUnits="userSpaceOnUse" color-interpolation-filters="sRGB">
    <feFlood flood-opacity="0" result="BackgroundImageFix"/>
    <feColorMatrix in="SourceAlpha" type="matrix" values="0 0 0 0 0 0 0 0 0 0 0 0 0 0 0 0 0 0 127 0" result="hardAlpha"/>
    <feOffset dy="1.24792"/>
    <feComposite in2="hardAlpha" operator="out"/>
    <feColorMatrix type="matrix" values="0 0 0 0 0.00941296 0 0 0 0 0.570451 0 0 0 0 0.847179 0 0 0 1 0"/>
    <feBlend mode="normal" in2="BackgroundImageFix" result="effect1_dropShadow_339_3676"/>
    <feBlend mode="normal" in="SourceGraphic" in2="effect1_dropShadow_339_3676" result="shape"/>
    </filter>
    <filter id="filter1_d_339_3676" x="8.23096" y="4.24998" width="22.5" height="23.7479" filterUnits="userSpaceOnUse" color-interpolation-filters="sRGB">
    <feFlood flood-opacity="0" result="BackgroundImageFix"/>
    <feColorMatrix in="SourceAlpha" type="matrix" values="0 0 0 0 0 0 0 0 0 0 0 0 0 0 0 0 0 0 127 0" result="hardAlpha"/>
    <feOffset dy="1.24792"/>
    <feComposite in2="hardAlpha" operator="out"/>
    <feColorMatrix type="matrix" values="0 0 0 0 0.670588 0 0 0 0 0.670588 0 0 0 0 0.670588 0 0 0 1 0"/>
    <feBlend mode="normal" in2="BackgroundImageFix" result="effect1_dropShadow_339_3676"/>
    <feBlend mode="normal" in="SourceGraphic" in2="effect1_dropShadow_339_3676" result="shape"/>
    </filter>
    <linearGradient id="paint0_linear_339_3676" x1="19.5" y1="0.5" x2="19.5" y2="30.5" gradientUnits="userSpaceOnUse">
    <stop stop-color="#24B9FF"/>
    <stop offset="1" stop-color="#17A2FF"/>
    </linearGradient>
    <linearGradient id="paint1_linear_339_3676" x1="19.481" y1="26.75" x2="19.481" y2="49.25" gradientUnits="userSpaceOnUse">
    <stop stop-color="white"/>
    <stop offset="1" stop-color="#EFEFEF"/>
    </linearGradient>
    </defs>
</svg>
