<svg width="16" height="16" viewBox="0 0 16 16" fill="none" xmlns="http://www.w3.org/2000/svg">
<path d="M15 8.00007C15.0004 8.16983 14.9569 8.33682 14.8736 8.48478C14.7904 8.63274 14.6703 8.75665 14.525 8.84444L5.52 14.3532C5.36818 14.4462 5.19429 14.4969 5.0163 14.5002C4.83831 14.5035 4.66266 14.4592 4.5075 14.3719C4.35382 14.286 4.2258 14.1607 4.1366 14.0089C4.04741 13.8571 4.00026 13.6843 4 13.5082V2.49194C4.00026 2.31587 4.04741 2.14305 4.1366 1.99124C4.2258 1.83943 4.35382 1.71412 4.5075 1.62819C4.66266 1.54091 4.83831 1.49663 5.0163 1.49993C5.19429 1.50322 5.36818 1.55398 5.52 1.64694L14.525 7.15569C14.6703 7.24349 14.7904 7.36739 14.8736 7.51535C14.9569 7.66332 15.0004 7.8303 15 8.00007Z" fill="white"/>
</svg>
