<svg width="20" height="20" viewBox="0 0 20 20" fill="none" xmlns="http://www.w3.org/2000/svg">
<g clip-path="url(#clip0_324_1194)">
<path d="M19.9987 10.0013C19.9991 11.8415 19.4975 13.6462 18.5492 15.2165C17.601 16.7868 16.2428 18.0618 14.6243 18.9012C13.0059 19.7405 11.1899 20.1116 9.37635 19.9736C7.56281 19.8357 5.82209 19.1939 4.34588 18.1191C4.13051 17.9608 3.92027 17.7961 3.719 17.621C2.17733 16.2956 1.07473 14.5235 0.560116 12.5439C0.0454982 10.5643 0.143647 8.4726 0.841307 6.55125C1.53897 4.62989 2.80253 2.97144 4.46136 1.79988C6.12019 0.628324 8.09437 8.40142e-05 10.1173 4.8818e-06C12.5535 -0.00243319 14.9042 0.908428 16.7156 2.55676C16.9147 2.73404 17.1049 2.92083 17.2861 3.11714C19.0305 4.97415 20.0019 7.43921 19.9987 10.0013Z" fill="url(#paint0_linear_324_1194)"/>
<path d="M10.1173 17.6417C8.62339 17.6417 7.16302 17.1935 5.92088 16.3537C4.67873 15.5138 3.7106 14.3202 3.1389 12.9236C2.56721 11.527 2.41763 9.99025 2.70907 8.50765C3.00052 7.02505 3.71991 5.6632 4.77627 4.5943C5.83262 3.52541 7.1785 2.79748 8.64371 2.50257C10.1089 2.20767 11.6276 2.35902 13.0078 2.93751C14.388 3.51599 15.5677 4.49561 16.3977 5.7525C17.2277 7.00939 17.6707 8.48709 17.6707 9.99873C17.6679 12.0249 16.8713 13.9674 15.4553 15.4001C14.0394 16.8329 12.1197 17.639 10.1173 17.6417ZM10.1173 3.78781C8.90336 3.78781 7.71668 4.15204 6.7073 4.83445C5.69793 5.51686 4.9112 6.48679 4.44659 7.62161C3.98197 8.75644 3.86034 10.0052 4.09708 11.2099C4.33381 12.4147 4.91828 13.5214 5.77658 14.3901C6.63487 15.2587 7.72845 15.8504 8.91904 16.0902C10.1096 16.33 11.3437 16.2071 12.4653 15.7372C13.587 15.2674 14.5457 14.4715 15.2203 13.4503C15.8949 12.4291 16.2551 11.2284 16.2554 10C16.2533 8.35342 15.606 6.77485 14.4553 5.61052C13.3047 4.44619 11.7446 3.79117 10.1173 3.78911V3.78781Z" fill="white"/>
<path d="M10.1173 13.5219C9.42886 13.5221 8.7558 13.3158 8.18326 12.929C7.61072 12.5421 7.16441 11.9922 6.90078 11.3487C6.63715 10.7052 6.56804 9.99698 6.70219 9.31372C6.83634 8.63046 7.16773 8.00281 7.65444 7.51014C8.14116 7.01747 8.76133 6.68191 9.43652 6.54592C10.1117 6.40992 10.8116 6.47959 11.4477 6.74611C12.0837 7.01264 12.6274 7.46404 13.0099 8.04323C13.3924 8.62243 13.5966 9.3034 13.5966 10C13.5955 10.9335 13.2287 11.8285 12.5765 12.4887C11.9242 13.149 11.0399 13.5205 10.1173 13.5219ZM10.1173 7.91154C9.70897 7.91103 9.30967 8.03308 8.96992 8.26225C8.63016 8.49142 8.36522 8.81741 8.20861 9.19899C8.052 9.58056 8.01076 10.0006 8.09011 10.4059C8.16946 10.8111 8.36583 11.1835 8.65438 11.4759C8.94293 11.7682 9.31069 11.9674 9.71113 12.0482C10.1116 12.1289 10.5267 12.0877 10.904 11.9297C11.2813 11.7718 11.6038 11.5041 11.8307 11.1606C12.0576 10.8171 12.1787 10.4132 12.1787 10C12.1777 9.447 11.9602 8.91691 11.5739 8.52575C11.1876 8.13459 10.6638 7.91421 10.1173 7.91284V7.91154Z" fill="white"/>
<path d="M10.1173 10.537C10.0176 10.6372 9.88282 10.6935 9.74232 10.6935C9.60181 10.6935 9.46701 10.6372 9.36734 10.537L1.93192 3.01334C1.83247 2.91288 1.77653 2.77656 1.77641 2.63437C1.77629 2.49218 1.832 2.35576 1.93128 2.25513C2.03056 2.1545 2.16528 2.0979 2.3058 2.09778C2.44633 2.09766 2.58114 2.15403 2.68059 2.25448L10.116 9.77816C10.2152 9.87884 10.271 10.0151 10.2713 10.1573C10.2715 10.2995 10.2162 10.436 10.1173 10.537Z" fill="url(#paint1_linear_324_1194)"/>
<path d="M1.99218 2.09236L0 2.25192L2.2037 4.48308L4.19332 4.31963L4.35357 2.3077L2.14986 0.0765381L1.99218 2.09236Z" fill="url(#paint2_linear_324_1194)"/>
</g>
<defs>
<linearGradient id="paint0_linear_324_1194" x1="-2.43061" y1="-4.96173" x2="24.6931" y2="26.6255" gradientUnits="userSpaceOnUse">
<stop stop-color="#FF7D71"/>
<stop offset="0.53" stop-color="#BD1F00"/>
<stop offset="1" stop-color="#741000"/>
</linearGradient>
<linearGradient id="paint1_linear_324_1194" x1="6.43932" y1="-13.112" x2="5.81585" y2="15.4426" gradientUnits="userSpaceOnUse">
<stop stop-color="#E9CC3E"/>
<stop offset="1" stop-color="#DDA537"/>
</linearGradient>
<linearGradient id="paint2_linear_324_1194" x1="2.17678" y1="-1.67726" x2="2.17678" y2="13.3377" gradientUnits="userSpaceOnUse">
<stop stop-color="#EDD339"/>
<stop offset="1" stop-color="#E4BB38"/>
</linearGradient>
<clipPath id="clip0_324_1194">
<rect width="20" height="20" fill="white"/>
</clipPath>
</defs>
</svg>
