<svg width="23" height="13" viewBox="0 0 23 13" fill="none" xmlns="http://www.w3.org/2000/svg">
<path d="M13.1466 12.5V0.5H17.8809C18.7911 0.5 19.5665 0.673828 20.2071 1.02148C20.8477 1.36523 21.336 1.84375 21.672 2.45703C22.0118 3.06641 22.1817 3.76953 22.1817 4.56641C22.1817 5.36328 22.0099 6.06641 21.6661 6.67578C21.3224 7.28516 20.8243 7.75977 20.172 8.09961C19.5235 8.43945 18.7384 8.60938 17.8165 8.60938H14.7989V6.57617H17.4063C17.8946 6.57617 18.297 6.49219 18.6134 6.32422C18.9337 6.15234 19.172 5.91602 19.3282 5.61523C19.4884 5.31055 19.5684 4.96094 19.5684 4.56641C19.5684 4.16797 19.4884 3.82031 19.3282 3.52344C19.172 3.22266 18.9337 2.99023 18.6134 2.82617C18.2931 2.6582 17.8868 2.57422 17.3946 2.57422H15.6837V12.5H13.1466Z" fill="#F9BB23"/>
<path d="M3.73046 0.5L6.15038 4.58984H6.24413L8.67578 0.5H11.541L7.8789 6.5L11.623 12.5H8.70507L6.24413 8.4043H6.15038L3.68945 12.5H0.783195L4.53906 6.5L0.853508 0.5H3.73046Z" fill="#F9BB23"/>
</svg>
